<svg width="27" height="27" viewBox="0 0 27 27" fill="none" xmlns="http://www.w3.org/2000/svg">
<path fill-rule="evenodd" clip-rule="evenodd" d="M21.5156 13.5005C21.5162 15.2402 20.9195 16.9273 19.8252 18.2797C18.7309 19.6321 17.2054 20.5678 15.5039 20.9302C13.8024 21.2926 12.028 21.0599 10.4776 20.2708C8.92717 19.4817 7.69467 18.1843 6.98625 16.5953L4.63894 17.5488C5.56946 19.6809 7.20568 21.4276 9.27251 22.4952C11.3393 23.5629 13.7107 23.8864 15.988 23.4114C18.2653 22.9364 20.3096 21.6918 21.7772 19.8869C23.2449 18.082 24.0463 15.8268 24.0469 13.5005C24.047 11.3873 23.3859 9.327 22.1562 7.60839C20.9266 5.88979 19.19 4.599 17.1899 3.91692C15.1898 3.23484 13.0264 3.19566 11.003 3.80487C8.97948 4.41408 7.19732 5.64115 5.90625 7.3141V4.21922H3.375V10.9692L4.64062 12.2348H10.5469V9.7036H7.344C8.17949 8.25517 9.46969 7.123 11.0144 6.48278C12.5591 5.84257 14.2719 5.7301 15.8871 6.16283C17.5022 6.59557 18.9294 7.5493 19.9471 8.87605C20.9648 10.2028 21.5162 11.8284 21.5156 13.5005Z" fill="#7E69BA"/>
</svg>
